<svg xmlns="http://www.w3.org/2000/svg" viewBox="0 0 222.25 41.62"><defs><style>.cls-1{fill:#872926;}.cls-2{fill:#f7931e;}</style></defs><title>Asset 11</title><g id="Layer_2" data-name="Layer 2"><g id="Layer_1-2" data-name="Layer 1"><path class="cls-1" d="M64.64,13.57a7.25,7.25,0,0,1,4.69,1.56l-1.77,3.68a3.92,3.92,0,0,0-2.71-1.2c-2.79,0-4.2,2.51-4.2,5.43s1.51,5.76,4.14,5.76a4.68,4.68,0,0,0,3-1.25l1.77,3.63a7.72,7.72,0,0,1-5.14,1.67c-5.19,0-8.19-4.07-8.19-9.6S59.37,13.57,64.64,13.57Z"/><path class="cls-1" d="M77.11,24.08h.31v-.23c0-1.18-.57-1.6-1.41-1.6a6.16,6.16,0,0,0-2.74.89L72.15,20a9.28,9.28,0,0,1,4.41-1.2c3.26,0,5.09,2,5.09,5.48v8.27H78v-.62c0-.44,0-.91,0-.91h0a3.65,3.65,0,0,1-3,1.74c-2,0-3.44-1.64-3.44-4.12C71.5,25.18,74.21,24.08,77.11,24.08Zm-1,5.35c.89,0,1.28-1,1.28-1.85v-1h-.31c-1,0-1.77.42-1.77,1.62C75.34,28.86,75.52,29.43,76.14,29.43Z"/><path class="cls-1" d="M85.9,28.28a5.12,5.12,0,0,0,2.56,1c.57,0,.89-.27.89-.68C89.35,27,84.81,27,84.81,23c0-2.61,1.88-4.18,4.67-4.18a6.46,6.46,0,0,1,3.62,1l-1.22,3.26a4.78,4.78,0,0,0-2.27-.78c-.52,0-.89.23-.89.68,0,1.46,4.54,1.38,4.54,5.53,0,2.35-1.54,4.33-4.64,4.33a7.06,7.06,0,0,1-4.31-1.49Z"/><path class="cls-1" d="M96.86,22.72H95.53V19.33H97V15.47h4.1v3.86h2v3.39h-2v4.34c0,1.51.68,1.72,1.67,1.72a3,3,0,0,0,.49,0v3.84c-.18,0-.78.08-1.12.08-1.77,0-5.27-.58-5.27-5.09Z"/><path class="cls-1" d="M106.41,13.88h4.23V27.06c0,1.27,0,1.72.88,1.72a3,3,0,0,0,.47,0v3.84a7.87,7.87,0,0,1-1.25.08c-2.19,0-4.33-.58-4.33-5.09Z"/><path class="cls-1" d="M119.74,18.78c3.47,0,5,2.8,5,6.29,0,.55,0,1.1-.08,1.7h-6.18c.26,1.88,1.25,2.45,2.24,2.45a4.6,4.6,0,0,0,2.92-1l1.07,3.13a7,7,0,0,1-4.49,1.54c-4.27,0-6-3.45-6-7.18S116,18.78,119.74,18.78Zm1,5.46c0-1.31-.18-2.19-1.1-2.19s-1.14,1-1.2,2.19Z"/><path class="cls-1" d="M135.21,14.19H137V30.94h6.45v1.59h-8.2Z"/><path class="cls-1" d="M150.64,19.1c3.15,0,4.35,2.87,4.35,5.84,0,.34,0,.68-.05,1.1h-7.57c.06,3.55,1.67,5.24,3.71,5.24a4.39,4.39,0,0,0,3.18-1.35l.5,1.38a5.51,5.51,0,0,1-3.84,1.54c-3.31,0-5.29-2.82-5.29-7S147.58,19.1,150.64,19.1Zm2.63,5.56c0-2.8-1-4.08-2.66-4.08s-2.92,1.44-3.24,4.08Z"/><path class="cls-1" d="M164.05,24.47h.68v-.39c0-2.69-.94-3.47-2.38-3.47a5.49,5.49,0,0,0-2.95,1l-.52-1.36a6.13,6.13,0,0,1,3.57-1.12c2.67,0,4,1.67,4,5v8.4h-1.56V31.39c0-.66,0-1.13,0-1.13h0a3.82,3.82,0,0,1-3.37,2.48c-1.67,0-3.39-1.17-3.39-3.86C158.1,24.76,162,24.47,164.05,24.47Zm-2.25,6.81c2,0,2.93-2.55,2.93-4.35v-1.1h-.66c-1.51,0-4.33.13-4.33,2.92A2.25,2.25,0,0,0,161.8,31.28Z"/><path class="cls-1" d="M171,19.41h1.67v2c0,.57-.05,1-.05,1h.05c.45-1.72,1.75-3.16,3.19-3.16a1.91,1.91,0,0,1,.54.08v1.72a2.28,2.28,0,0,0-.54,0c-2.22,0-3.16,3.36-3.16,5.82v5.68H171Z"/><path class="cls-1" d="M179.94,19.41h1.67v1.33a3.91,3.91,0,0,1-.08.81h.05a4.21,4.21,0,0,1,4-2.45c2.43,0,3.39,1.62,3.39,4.17v9.26h-1.72V23.64c0-1.44-.23-2.92-2.06-2.92-2.11,0-3.55,2.06-3.55,4.12v7.69h-1.69Z"/><path class="cls-1" d="M193.48,14.19h1.85v2.25h-1.85Zm.07,5.22h1.7V32.53h-1.7Z"/><path class="cls-1" d="M200,19.41h1.67v1.33a3.91,3.91,0,0,1-.08.81h.05a4.21,4.21,0,0,1,4-2.45c2.43,0,3.39,1.62,3.39,4.17v9.26h-1.72V23.64c0-1.44-.23-2.92-2.06-2.92-2.11,0-3.55,2.06-3.55,4.12v7.69H200Z"/><path class="cls-1" d="M217.14,36.42c1.93,0,3.42-1.17,3.42-4.12V31.18c0-.52,0-1,0-1h0a3.14,3.14,0,0,1-3.11,2.25c-2.81,0-4.51-2.82-4.51-6.71s1.64-6.65,4.44-6.65a3.29,3.29,0,0,1,3.26,2.16h0V19.41h1.59V32.22c0,4.18-2.45,5.79-5,5.79a6.37,6.37,0,0,1-3.36-1l.52-1.46A5.28,5.28,0,0,0,217.14,36.42Zm3.47-10.7c0-3.83-1.33-5-3-5-1.9,0-2.92,1.85-2.92,5s1.15,5.17,3.08,5.17C219.28,30.87,220.61,29.59,220.61,25.72Z"/><path class="cls-2" d="M30.58,0H4.39A4.38,4.38,0,0,0,0,4.39V37.64a4.38,4.38,0,0,0,2.26,3.82l3.62-.91h2.3l3.55-1.49,13,1.26,2.91-.17,3,1.18,1.73.29a4.37,4.37,0,0,0,2.57-4V4.39A4.38,4.38,0,0,0,30.58,0ZM24.67,39.1,11.52,37.7,7.25,39.53,10.41,18s0,0,0,0c0-.28,3.11-.5,7-.5s7,.22,7,.5c0,0,0,0,0,0l3.07,20.84Zm4.66-25.18h0l-5,3c-.06-.28-3.15-.5-6.95-.5s-6.93.22-7,.5l-5.35-3h0c-.18-.1-.28-.2-.28-.3,0-.79,5.56-1.43,12.42-1.43s12.42.64,12.42,1.43C29.61,13.72,29.52,13.82,29.33,13.92Zm.28-1.28c0-.79-5.56-1.42-12.42-1.42s-12.42.63-12.42,1.42h0V6c0-.45,1.25-.87,3.31-1.18V8.15c.76-.11,1.64-.21,2.6-.3V4.57c.81-.07,1.69-.13,2.61-.17V7.68c.83,0,1.7-.06,2.61-.07V4.32h2.61V7.61c.9,0,1.78,0,2.61.08V4.4c.91,0,1.78.1,2.58.17V7.85c1,.09,1.84.19,2.61.3V4.86c2.05.31,3.3.73,3.3,1.18h0Z"/></g></g></svg>