<?xml version="1.0"?>
<svg width="331" height="60" xmlns="http://www.w3.org/2000/svg" xmlns:svg="http://www.w3.org/2000/svg">
 <g class="layer">
  <title>Layer 1</title>
  <g id="svg_1">
   <polygon fill="#78BB43" id="svg_2" points="55.8,0.4 40.9,0.4 37.2,4.1 37.2,19 18.6,0.5 3.7,0.5 0,4.2 0.1,56.3 3.9,60 18.8,60 22.5,56.2 22.4,41.4 41.1,59.9 55.9,59.8 59.6,56.1 59.5,4.1   "/>
   <polygon fill="#F9A11E" id="svg_3" points="82,59.8 96.8,59.7 100.5,56 100.5,44.9 119.1,26.2 119,3.9 115.3,0.2 100.4,0.2 96.7,4 96.7,11.4 89.3,18.9 81.8,11.4 81.8,4 78.1,0.3 63.2,0.3 59.5,4.1 59.6,26.4 78.2,44.9 78.2,56.1 "/>
   <polygon fill="#789DD2" id="svg_4" points="167.3,0.1 130.1,0.2 119,11.3 119.1,48.5 130.3,59.6 167.5,59.5 178.6,48.4 178.6,37.2 174.8,33.5 156.3,33.5 156.3,37.3 141.4,37.3 141.4,22.4 156.2,22.4 156.2,26.1 174.8,26 178.5,22.3 178.5,11.2   "/>
   <path d="m175.9,0l0.8,2.3l0.8,-2.3l0.9,0l0,3.2l-0.6,0l0,-2.6l-0.8,2.6l-0.5,0l-0.9,-2.5l0,2.5l-0.6,0l0,-3.2l0.9,0zm-4.1,0.6l0,-0.6l2.7,0l0,0.5l-1,0l0,2.6l-0.6,0l0,-2.6l-1.1,0.1z" fill="#789DD2" id="svg_5"/>
  </g>
  <g fill="white" id="svg_6">
   <path d="m198.3,12.4l4.6,0c2.1,0 3.7,-0.9 3.7,-3.3c0,-2.5 -1.6,-3.4 -3.7,-3.4l-4.6,0l0,6.7zm-6.9,-12.2l12.5,0c4.9,0 9.5,2.2 9.5,8.4c0,6.5 -3.7,9 -9.5,9.1l-5.6,0l0,8.7l-6.8,0l-0.1,-26.2z" fill="#303993" id="svg_7"/>
   <path d="m234.6,26.4l-6.1,0l0,-2.6l-0.1,0c-1.2,2 -3.6,3.2 -5.8,3.2c-5.5,0 -7.1,-3.1 -7.1,-8.1l0,-11.5l6.2,0l0,11.1c0,2.5 1.1,3.4 3.1,3.4c1.4,0 3.4,-0.9 3.4,-4.3l0,-10.2l6.2,0l0.2,19z" fill="#303993" id="svg_8"/>
   <path d="m244.1,16.6c0,3.3 1,5.5 3.8,5.5c2.8,0 3.7,-2.9 3.7,-5.5c0,-2.4 -1,-5.1 -3.7,-5.1c-1.7,0 -3.8,1.2 -3.8,5.1m-6.1,-16.5l6.2,0l0,9.3l0.1,0c1.3,-1.8 3.1,-2.7 5.4,-2.7c5.4,0 8.1,4.7 8.1,9.6c0,5.4 -2.5,10.5 -8.5,10.5c-2.2,0 -4,-0.9 -5.3,-2.7l-0.1,0l0,2.2l-6,0l0.1,-26.2z" fill="#303993" id="svg_9"/>
   <rect fill="#303993" height="26.2" id="svg_10" transform="matrix(1 -2.606118e-03 2.606118e-03 1 -3.338421e-02 0.6876)" width="6.2" x="260.7" y="0"/>
   <path d="m270.8,7.2l6.2,0l0.1,19.1l-6.2,0l-0.1,-19.1zm6.3,-2.4l-6.2,0l0,-4.8l6.2,0l0,4.8z" fill="#303993" id="svg_11"/>
   <path d="m293.2,14.1c0,-1.6 -1.5,-2.8 -3.1,-2.8c-3.5,0 -4,3 -4,5.6c0,2.5 1.1,5 3.7,5c2.2,0 3.3,-1.3 3.6,-3.3l6.1,0c-0.5,5.1 -4.5,8.1 -9.6,8.1c-5.7,0 -10,-3.9 -10,-9.8c0,-6.1 3.8,-10.4 10,-10.4c4.7,0 9,2.5 9.4,7.5l-6.1,0.1z" fill="#303993" id="svg_12"/>
   <path d="m198.2,49.9c0.2,3.1 2.1,4.1 5,4.1c2.1,0 4.2,-0.7 4.2,-2.7c0,-2.3 -3.8,-2.8 -7.5,-3.8c-3.8,-1.1 -7.7,-2.7 -7.7,-7.5c0,-5.7 5.8,-8 10.7,-8c5.2,0 10.5,2.5 10.5,8.4l-6.8,0c0.1,-2.4 -2.1,-3.2 -4.2,-3.2c-1.5,0 -3.3,0.5 -3.3,2.3c0,2 3.8,2.4 7.6,3.4c3.8,1.1 7.6,2.8 7.6,7.5c0,6.6 -5.6,8.8 -11.4,8.8c-6,0 -11.4,-2.6 -11.4,-9.3l6.7,0z" fill="#303993" id="svg_13"/>
   <path d="m228.8,46.5c0,-1.6 -1.5,-2.8 -3.1,-2.8c-3.5,0 -4,3 -4,5.6c0,2.5 1.1,5 3.7,5c2.2,0 3.3,-1.3 3.6,-3.3l6.1,0c-0.5,5.1 -4.5,8.1 -9.6,8.1c-5.7,0 -10,-3.9 -10,-9.8c0,-6.1 3.8,-10.4 10,-10.4c4.7,0 9,2.5 9.4,7.5l-6.1,0.1z" fill="#303993" id="svg_14" transform="matrix(1 0 0 1 0 0)"/>
   <path d="m237.4,32.4l6.2,0l0,9.8l0.1,0c0.9,-2 3.5,-3.2 5.8,-3.2c6.4,0 6.9,4.6 6.9,7.4l0,12.2l-6.2,0l0,-9.2c0,-2.6 0.3,-5.3 -3.1,-5.2c-2.3,0 -3.4,2 -3.4,4.1l0,10.4l-6.2,0l-0.1,-26.3z" fill="#303993" id="svg_15"/>
   <path d="m269,54.3c2.9,0 3.8,-2.9 3.8,-5.3c0,-2.4 -0.9,-5.3 -3.8,-5.3c-2.9,0 -3.8,2.9 -3.8,5.3c0,2.4 0.9,5.3 3.8,5.3m-0.1,-15.4c5.9,0 10.1,4.3 10.1,10.1c0,5.7 -4.1,10.1 -10,10.1c-5.9,0 -10,-4.3 -10.1,-10s4.1,-10.2 10,-10.2" fill="#303993" id="svg_16"/>
   <path d="m290.7,54.2c2.9,0 3.8,-2.9 3.8,-5.3c0,-2.4 -0.9,-5.3 -3.8,-5.3c-2.9,0 -3.8,2.9 -3.8,5.3c0,2.5 0.9,5.3 3.8,5.3m0,-15.4c5.9,0 10.1,4.3 10.1,10.1s-4.1,10.1 -10,10.1c-5.9,0 -10,-4.3 -10.1,-10c-0.1,-5.8 4,-10.1 10,-10.2" fill="#303993" id="svg_17"/>
   <rect fill="#303993" height="26.2" id="svg_18" transform="matrix(1 -2.606646e-03 2.606646e-03 1 -0.117 0.7995)" width="6.2" x="303.5" y="32.2"/>
   <path d="m318.3,52.1c0,1 0.4,1.7 1,2.1c0.6,0.4 1.4,0.7 2.3,0.7c1.2,0 2.9,-0.5 2.9,-2c0,-1.5 -2,-1.8 -3.1,-2c-3.9,-1 -8.9,-1.1 -8.9,-6.2c0,-4.6 4.9,-5.9 8.7,-5.9c4.2,0 8.6,1.2 8.8,6.1l-5.8,0c0,-0.8 -0.3,-1.3 -0.8,-1.7c-0.5,-0.3 -1.2,-0.5 -2,-0.5c-1,0 -2.7,0.1 -2.7,1.4c0,1.8 4.2,2.1 7.1,2.7c3.9,0.8 4.9,3.6 4.9,5.1c0,5.1 -4.8,6.8 -9.1,6.8c-4.5,0 -9.2,-1.5 -9.4,-6.8l6.1,0.2z" fill="#303993" id="svg_19"/>
  </g>
 </g>
</svg>